<svg width="818" height="514" viewBox="0 0 818 514" fill="none" xmlns="http://www.w3.org/2000/svg">
<g filter="url(#filter0_dd_414_61)">
<rect x="38" y="30" width="742" height="438" rx="12" fill="white"/>
</g>
<path d="M110.464 427.6H112.29V439.612C112.29 440.785 112.026 441.68 111.498 442.296C110.985 442.912 110.2 443.22 109.144 443.22C109.027 443.22 108.88 443.213 108.704 443.198C108.528 443.183 108.352 443.161 108.176 443.132C108 443.103 107.831 443.066 107.67 443.022C107.494 442.978 107.355 442.927 107.252 442.868L107.604 441.306C108.015 441.497 108.462 441.592 108.946 441.592C109.562 441.592 109.965 441.379 110.156 440.954C110.361 440.514 110.464 439.92 110.464 439.172V427.6ZM115.92 432.814C116.478 432.477 117.123 432.227 117.856 432.066C118.604 431.905 119.382 431.824 120.188 431.824C120.951 431.824 121.56 431.927 122.014 432.132C122.484 432.337 122.836 432.609 123.07 432.946C123.32 433.269 123.481 433.628 123.554 434.024C123.642 434.42 123.686 434.816 123.686 435.212C123.686 436.092 123.664 436.95 123.62 437.786C123.576 438.622 123.554 439.414 123.554 440.162C123.554 440.705 123.576 441.218 123.62 441.702C123.664 442.186 123.745 442.633 123.862 443.044H122.564L122.102 441.504H121.992C121.86 441.709 121.692 441.915 121.486 442.12C121.296 442.311 121.061 442.487 120.782 442.648C120.504 442.795 120.181 442.919 119.814 443.022C119.448 443.125 119.03 443.176 118.56 443.176C118.091 443.176 117.651 443.103 117.24 442.956C116.844 442.809 116.5 442.604 116.206 442.34C115.913 442.061 115.678 441.731 115.502 441.35C115.341 440.969 115.26 440.536 115.26 440.052C115.26 439.407 115.392 438.871 115.656 438.446C115.92 438.006 116.287 437.661 116.756 437.412C117.24 437.148 117.812 436.965 118.472 436.862C119.147 436.745 119.888 436.686 120.694 436.686C120.9 436.686 121.098 436.686 121.288 436.686C121.494 436.686 121.699 436.701 121.904 436.73C121.948 436.29 121.97 435.894 121.97 435.542C121.97 434.735 121.809 434.171 121.486 433.848C121.164 433.525 120.577 433.364 119.726 433.364C119.477 433.364 119.206 433.386 118.912 433.43C118.634 433.459 118.34 433.511 118.032 433.584C117.739 433.643 117.453 433.723 117.174 433.826C116.91 433.914 116.676 434.017 116.47 434.134L115.92 432.814ZM119.044 441.636C119.455 441.636 119.822 441.585 120.144 441.482C120.467 441.365 120.746 441.225 120.98 441.064C121.215 440.888 121.406 440.697 121.552 440.492C121.714 440.287 121.831 440.089 121.904 439.898V438.072C121.699 438.057 121.486 438.05 121.266 438.05C121.061 438.035 120.856 438.028 120.65 438.028C120.196 438.028 119.748 438.057 119.308 438.116C118.883 438.16 118.502 438.255 118.164 438.402C117.842 438.534 117.578 438.725 117.372 438.974C117.182 439.209 117.086 439.509 117.086 439.876C117.086 440.389 117.27 440.815 117.636 441.152C118.003 441.475 118.472 441.636 119.044 441.636ZM134.072 443V436.73C134.072 435.586 133.904 434.728 133.566 434.156C133.244 433.569 132.642 433.276 131.762 433.276C130.985 433.276 130.34 433.489 129.826 433.914C129.328 434.325 128.976 434.845 128.77 435.476V443H127.01V432H128.242L128.572 433.342H128.66C129.012 432.873 129.482 432.491 130.068 432.198C130.67 431.89 131.381 431.736 132.202 431.736C132.804 431.736 133.332 431.809 133.786 431.956C134.241 432.088 134.615 432.33 134.908 432.682C135.216 433.034 135.444 433.511 135.59 434.112C135.752 434.699 135.832 435.447 135.832 436.356V443H134.072Z" fill="black"/>
<path d="M172.426 427.6H180.808V429.228H174.252V434.486H180.368V436.114H174.252V443H172.426V427.6ZM191.645 442.12C191.205 442.472 190.648 442.751 189.973 442.956C189.313 443.161 188.609 443.264 187.861 443.264C187.025 443.264 186.299 443.132 185.683 442.868C185.067 442.589 184.561 442.201 184.165 441.702C183.769 441.189 183.476 440.58 183.285 439.876C183.094 439.172 182.999 438.38 182.999 437.5C182.999 435.623 183.417 434.193 184.253 433.21C185.089 432.227 186.284 431.736 187.839 431.736C188.338 431.736 188.836 431.795 189.335 431.912C189.834 432.015 190.281 432.22 190.677 432.528C191.073 432.836 191.396 433.276 191.645 433.848C191.894 434.405 192.019 435.146 192.019 436.07C192.019 436.554 191.975 437.089 191.887 437.676H184.825C184.825 438.321 184.891 438.893 185.023 439.392C185.155 439.891 185.36 440.316 185.639 440.668C185.918 441.005 186.277 441.269 186.717 441.46C187.172 441.636 187.722 441.724 188.367 441.724C188.866 441.724 189.364 441.636 189.863 441.46C190.362 441.284 190.736 441.079 190.985 440.844L191.645 442.12ZM187.861 433.276C186.996 433.276 186.299 433.503 185.771 433.958C185.258 434.413 184.95 435.19 184.847 436.29H190.303C190.303 435.175 190.09 434.398 189.665 433.958C189.24 433.503 188.638 433.276 187.861 433.276ZM194.787 427.6H196.547V433.078H196.635C196.972 432.653 197.397 432.323 197.911 432.088C198.439 431.853 199.011 431.736 199.627 431.736C201.049 431.736 202.113 432.191 202.817 433.1C203.535 434.009 203.895 435.417 203.895 437.324C203.895 439.245 203.425 440.705 202.487 441.702C201.548 442.699 200.228 443.198 198.527 443.198C197.705 443.198 196.957 443.11 196.283 442.934C195.623 442.758 195.124 442.567 194.787 442.362V427.6ZM199.319 433.276C198.585 433.276 197.991 433.481 197.537 433.892C197.082 434.303 196.752 434.882 196.547 435.63V441.174C196.825 441.335 197.163 441.46 197.559 441.548C197.955 441.621 198.365 441.658 198.791 441.658C199.788 441.658 200.58 441.306 201.167 440.602C201.768 439.898 202.069 438.798 202.069 437.302C202.069 436.73 202.017 436.195 201.915 435.696C201.812 435.197 201.651 434.772 201.431 434.42C201.211 434.068 200.925 433.789 200.573 433.584C200.235 433.379 199.817 433.276 199.319 433.276Z" fill="black"/>
<path d="M251.817 432.66L252.037 430.35H251.927L251.091 432.462L247.087 439.414H246.537L242.291 432.44L241.499 430.35H241.389L241.697 432.638V443H239.981V427.6H241.345L246.163 435.476L246.889 437.192H246.933L247.615 435.432L252.213 427.6H253.643V443H251.817V432.66ZM257.031 432.814C257.589 432.477 258.234 432.227 258.967 432.066C259.715 431.905 260.493 431.824 261.299 431.824C262.062 431.824 262.671 431.927 263.125 432.132C263.595 432.337 263.947 432.609 264.181 432.946C264.431 433.269 264.592 433.628 264.665 434.024C264.753 434.42 264.797 434.816 264.797 435.212C264.797 436.092 264.775 436.95 264.731 437.786C264.687 438.622 264.665 439.414 264.665 440.162C264.665 440.705 264.687 441.218 264.731 441.702C264.775 442.186 264.856 442.633 264.973 443.044H263.675L263.213 441.504H263.103C262.971 441.709 262.803 441.915 262.597 442.12C262.407 442.311 262.172 442.487 261.893 442.648C261.615 442.795 261.292 442.919 260.925 443.022C260.559 443.125 260.141 443.176 259.671 443.176C259.202 443.176 258.762 443.103 258.351 442.956C257.955 442.809 257.611 442.604 257.317 442.34C257.024 442.061 256.789 441.731 256.613 441.35C256.452 440.969 256.371 440.536 256.371 440.052C256.371 439.407 256.503 438.871 256.767 438.446C257.031 438.006 257.398 437.661 257.867 437.412C258.351 437.148 258.923 436.965 259.583 436.862C260.258 436.745 260.999 436.686 261.805 436.686C262.011 436.686 262.209 436.686 262.399 436.686C262.605 436.686 262.81 436.701 263.015 436.73C263.059 436.29 263.081 435.894 263.081 435.542C263.081 434.735 262.92 434.171 262.597 433.848C262.275 433.525 261.688 433.364 260.837 433.364C260.588 433.364 260.317 433.386 260.023 433.43C259.745 433.459 259.451 433.511 259.143 433.584C258.85 433.643 258.564 433.723 258.285 433.826C258.021 433.914 257.787 434.017 257.581 434.134L257.031 432.814ZM260.155 441.636C260.566 441.636 260.933 441.585 261.255 441.482C261.578 441.365 261.857 441.225 262.091 441.064C262.326 440.888 262.517 440.697 262.663 440.492C262.825 440.287 262.942 440.089 263.015 439.898V438.072C262.81 438.057 262.597 438.05 262.377 438.05C262.172 438.035 261.967 438.028 261.761 438.028C261.307 438.028 260.859 438.057 260.419 438.116C259.994 438.16 259.613 438.255 259.275 438.402C258.953 438.534 258.689 438.725 258.483 438.974C258.293 439.209 258.197 439.509 258.197 439.876C258.197 440.389 258.381 440.815 258.747 441.152C259.114 441.475 259.583 441.636 260.155 441.636ZM273.313 433.694C272.873 433.547 272.455 433.474 272.059 433.474C271.429 433.474 270.93 433.65 270.563 434.002C270.197 434.339 269.969 434.772 269.881 435.3V443H268.121V432H269.353L269.683 433.342H269.771C270.05 432.843 270.38 432.462 270.761 432.198C271.157 431.919 271.656 431.78 272.257 431.78C272.683 431.78 273.159 431.853 273.687 432L273.313 433.694Z" fill="black"/>
<path d="M315.863 438.732H310.187L308.647 443H306.843L312.673 427.358H313.509L319.361 443H317.447L315.863 438.732ZM310.781 437.148H315.313L313.597 432.462L313.047 430.13H313.025L312.475 432.506L310.781 437.148ZM321.23 432H322.44L322.77 433.32H322.858C323.195 432.807 323.628 432.418 324.156 432.154C324.699 431.875 325.315 431.736 326.004 431.736C327.471 431.736 328.563 432.169 329.282 433.034C330.001 433.899 330.36 435.315 330.36 437.28C330.36 438.204 330.235 439.04 329.986 439.788C329.751 440.521 329.414 441.145 328.974 441.658C328.534 442.171 327.999 442.567 327.368 442.846C326.752 443.125 326.063 443.264 325.3 443.264C324.757 443.264 324.325 443.227 324.002 443.154C323.694 443.095 323.357 442.985 322.99 442.824V447.4H321.23V432ZM325.674 433.276C324.926 433.276 324.332 433.474 323.892 433.87C323.467 434.251 323.166 434.838 322.99 435.63V441.086C323.254 441.291 323.555 441.453 323.892 441.57C324.229 441.673 324.677 441.724 325.234 441.724C326.246 441.724 327.045 441.35 327.632 440.602C328.233 439.839 328.534 438.725 328.534 437.258C328.534 436.657 328.483 436.114 328.38 435.63C328.277 435.131 328.109 434.713 327.874 434.376C327.654 434.024 327.361 433.753 326.994 433.562C326.642 433.371 326.202 433.276 325.674 433.276ZM338.324 433.694C337.884 433.547 337.466 433.474 337.07 433.474C336.44 433.474 335.941 433.65 335.574 434.002C335.208 434.339 334.98 434.772 334.892 435.3V443H333.132V432H334.364L334.694 433.342H334.782C335.061 432.843 335.391 432.462 335.772 432.198C336.168 431.919 336.667 431.78 337.268 431.78C337.694 431.78 338.17 431.853 338.698 432L338.324 433.694Z" fill="black"/>
<path d="M385.928 432.66L386.148 430.35H386.038L385.202 432.462L381.198 439.414H380.648L376.402 432.44L375.61 430.35H375.5L375.808 432.638V443H374.092V427.6H375.456L380.274 435.476L381 437.192H381.044L381.726 435.432L386.324 427.6H387.754V443H385.928V432.66ZM391.143 432.814C391.7 432.477 392.345 432.227 393.079 432.066C393.827 431.905 394.604 431.824 395.411 431.824C396.173 431.824 396.782 431.927 397.237 432.132C397.706 432.337 398.058 432.609 398.293 432.946C398.542 433.269 398.703 433.628 398.777 434.024C398.865 434.42 398.909 434.816 398.909 435.212C398.909 436.092 398.887 436.95 398.843 437.786C398.799 438.622 398.777 439.414 398.777 440.162C398.777 440.705 398.799 441.218 398.843 441.702C398.887 442.186 398.967 442.633 399.085 443.044H397.787L397.325 441.504H397.215C397.083 441.709 396.914 441.915 396.709 442.12C396.518 442.311 396.283 442.487 396.005 442.648C395.726 442.795 395.403 442.919 395.037 443.022C394.67 443.125 394.252 443.176 393.783 443.176C393.313 443.176 392.873 443.103 392.463 442.956C392.067 442.809 391.722 442.604 391.429 442.34C391.135 442.061 390.901 441.731 390.725 441.35C390.563 440.969 390.483 440.536 390.483 440.052C390.483 439.407 390.615 438.871 390.879 438.446C391.143 438.006 391.509 437.661 391.979 437.412C392.463 437.148 393.035 436.965 393.695 436.862C394.369 436.745 395.11 436.686 395.917 436.686C396.122 436.686 396.32 436.686 396.511 436.686C396.716 436.686 396.921 436.701 397.127 436.73C397.171 436.29 397.193 435.894 397.193 435.542C397.193 434.735 397.031 434.171 396.709 433.848C396.386 433.525 395.799 433.364 394.949 433.364C394.699 433.364 394.428 433.386 394.135 433.43C393.856 433.459 393.563 433.511 393.255 433.584C392.961 433.643 392.675 433.723 392.397 433.826C392.133 433.914 391.898 434.017 391.693 434.134L391.143 432.814ZM394.267 441.636C394.677 441.636 395.044 441.585 395.367 441.482C395.689 441.365 395.968 441.225 396.203 441.064C396.437 440.888 396.628 440.697 396.775 440.492C396.936 440.287 397.053 440.089 397.127 439.898V438.072C396.921 438.057 396.709 438.05 396.489 438.05C396.283 438.035 396.078 438.028 395.873 438.028C395.418 438.028 394.971 438.057 394.531 438.116C394.105 438.16 393.724 438.255 393.387 438.402C393.064 438.534 392.8 438.725 392.595 438.974C392.404 439.209 392.309 439.509 392.309 439.876C392.309 440.389 392.492 440.815 392.859 441.152C393.225 441.475 393.695 441.636 394.267 441.636ZM405.467 439.128L406.083 441.24H406.193L406.677 439.106L408.811 432H410.593L407.337 441.878C407.087 442.597 406.838 443.293 406.589 443.968C406.354 444.643 406.09 445.244 405.797 445.772C405.503 446.3 405.173 446.718 404.807 447.026C404.44 447.349 404.015 447.51 403.531 447.51C403.003 447.51 402.57 447.437 402.233 447.29L402.541 445.772C402.731 445.845 402.915 445.882 403.091 445.882C403.501 445.882 403.897 445.662 404.279 445.222C404.66 444.797 404.975 444.056 405.225 443L400.803 432H402.827L405.467 439.128Z" fill="black"/>
<path d="M446.242 427.6H448.068V439.612C448.068 440.785 447.804 441.68 447.276 442.296C446.762 442.912 445.978 443.22 444.922 443.22C444.804 443.22 444.658 443.213 444.482 443.198C444.306 443.183 444.13 443.161 443.954 443.132C443.778 443.103 443.609 443.066 443.448 443.022C443.272 442.978 443.132 442.927 443.03 442.868L443.382 441.306C443.792 441.497 444.24 441.592 444.724 441.592C445.34 441.592 445.743 441.379 445.934 440.954C446.139 440.514 446.242 439.92 446.242 439.172V427.6ZM453.458 432V438.27C453.458 438.842 453.488 439.348 453.546 439.788C453.62 440.213 453.737 440.573 453.898 440.866C454.06 441.145 454.28 441.357 454.558 441.504C454.837 441.651 455.189 441.724 455.614 441.724C456.01 441.724 456.362 441.665 456.67 441.548C456.978 441.416 457.25 441.24 457.484 441.02C457.734 440.8 457.946 440.551 458.122 440.272C458.313 439.979 458.467 439.671 458.584 439.348V432H460.344V439.876C460.344 440.404 460.359 440.954 460.388 441.526C460.432 442.083 460.498 442.575 460.586 443H459.376L458.936 441.262H458.826C458.489 441.834 458.034 442.311 457.462 442.692C456.89 443.073 456.164 443.264 455.284 443.264C454.698 443.264 454.177 443.191 453.722 443.044C453.282 442.912 452.908 442.67 452.6 442.318C452.307 441.966 452.08 441.497 451.918 440.91C451.772 440.309 451.698 439.553 451.698 438.644V432H453.458ZM470.796 443V436.73C470.796 435.586 470.627 434.728 470.29 434.156C469.967 433.569 469.366 433.276 468.486 433.276C467.708 433.276 467.063 433.489 466.55 433.914C466.051 434.325 465.699 434.845 465.494 435.476V443H463.734V432H464.966L465.296 433.342H465.384C465.736 432.873 466.205 432.491 466.792 432.198C467.393 431.89 468.104 431.736 468.926 431.736C469.527 431.736 470.055 431.809 470.51 431.956C470.964 432.088 471.338 432.33 471.632 432.682C471.94 433.034 472.167 433.511 472.314 434.112C472.475 434.699 472.556 435.447 472.556 436.356V443H470.796Z" fill="black"/>
<path d="M509.797 427.6H511.623V439.612C511.623 440.785 511.359 441.68 510.831 442.296C510.318 442.912 509.533 443.22 508.477 443.22C508.36 443.22 508.213 443.213 508.037 443.198C507.861 443.183 507.685 443.161 507.509 443.132C507.333 443.103 507.165 443.066 507.003 443.022C506.827 442.978 506.688 442.927 506.585 442.868L506.937 441.306C507.348 441.497 507.795 441.592 508.279 441.592C508.895 441.592 509.299 441.379 509.489 440.954C509.695 440.514 509.797 439.92 509.797 439.172V427.6ZM517.014 432V438.27C517.014 438.842 517.043 439.348 517.102 439.788C517.175 440.213 517.292 440.573 517.454 440.866C517.615 441.145 517.835 441.357 518.114 441.504C518.392 441.651 518.744 441.724 519.17 441.724C519.566 441.724 519.918 441.665 520.226 441.548C520.534 441.416 520.805 441.24 521.04 441.02C521.289 440.8 521.502 440.551 521.678 440.272C521.868 439.979 522.022 439.671 522.14 439.348V432H523.9V439.876C523.9 440.404 523.914 440.954 523.944 441.526C523.988 442.083 524.054 442.575 524.142 443H522.932L522.492 441.262H522.382C522.044 441.834 521.59 442.311 521.018 442.692C520.446 443.073 519.72 443.264 518.84 443.264C518.253 443.264 517.732 443.191 517.278 443.044C516.838 442.912 516.464 442.67 516.156 442.318C515.862 441.966 515.635 441.497 515.474 440.91C515.327 440.309 515.254 439.553 515.254 438.644V432H517.014ZM529.247 440.294C529.247 440.807 529.335 441.174 529.511 441.394C529.687 441.614 529.936 441.724 530.259 441.724C530.45 441.724 530.655 441.709 530.875 441.68C531.095 441.651 531.344 441.585 531.623 441.482L531.821 442.868C531.586 442.985 531.256 443.081 530.831 443.154C530.42 443.227 530.061 443.264 529.753 443.264C529.093 443.264 528.55 443.081 528.125 442.714C527.7 442.333 527.487 441.695 527.487 440.8V427.6H529.247V440.294Z" fill="black"/>
<path d="M566.121 435.3C566.121 432.733 566.664 430.768 567.749 429.404C568.834 428.025 570.382 427.336 572.391 427.336C573.476 427.336 574.415 427.527 575.207 427.908C575.999 428.289 576.652 428.832 577.165 429.536C577.693 430.225 578.082 431.061 578.331 432.044C578.58 433.012 578.705 434.097 578.705 435.3C578.705 437.867 578.155 439.839 577.055 441.218C575.97 442.582 574.415 443.264 572.391 443.264C571.32 443.264 570.389 443.073 569.597 442.692C568.82 442.311 568.167 441.775 567.639 441.086C567.126 440.382 566.744 439.546 566.495 438.578C566.246 437.595 566.121 436.503 566.121 435.3ZM568.057 435.3C568.057 436.151 568.138 436.957 568.299 437.72C568.475 438.483 568.739 439.157 569.091 439.744C569.443 440.316 569.89 440.778 570.433 441.13C570.99 441.467 571.643 441.636 572.391 441.636C573.755 441.636 574.826 441.123 575.603 440.096C576.38 439.055 576.769 437.456 576.769 435.3C576.769 434.464 576.681 433.665 576.505 432.902C576.344 432.125 576.08 431.45 575.713 430.878C575.361 430.291 574.906 429.829 574.349 429.492C573.806 429.14 573.154 428.964 572.391 428.964C571.042 428.964 569.978 429.485 569.201 430.526C568.438 431.553 568.057 433.144 568.057 435.3ZM589.124 442.274C588.684 442.597 588.163 442.839 587.562 443C586.961 443.176 586.33 443.264 585.67 443.264C584.819 443.264 584.101 443.132 583.514 442.868C582.927 442.589 582.443 442.201 582.062 441.702C581.695 441.189 581.424 440.58 581.248 439.876C581.087 439.157 581.006 438.365 581.006 437.5C581.006 435.637 581.417 434.215 582.238 433.232C583.059 432.235 584.24 431.736 585.78 431.736C586.484 431.736 587.078 431.795 587.562 431.912C588.061 432.015 588.508 432.169 588.904 432.374L588.398 433.892C588.061 433.701 587.687 433.555 587.276 433.452C586.865 433.335 586.425 433.276 585.956 433.276C583.873 433.276 582.832 434.684 582.832 437.5C582.832 438.057 582.883 438.593 582.986 439.106C583.103 439.605 583.287 440.052 583.536 440.448C583.8 440.829 584.137 441.137 584.548 441.372C584.973 441.607 585.494 441.724 586.11 441.724C586.638 441.724 587.107 441.643 587.518 441.482C587.943 441.321 588.288 441.137 588.552 440.932L589.124 442.274ZM590.096 432H591.812V429.822L593.572 429.316V432H596.564V433.54H593.572V439.634C593.572 440.397 593.667 440.939 593.858 441.262C594.048 441.57 594.371 441.724 594.826 441.724C595.207 441.724 595.53 441.687 595.794 441.614C596.058 441.526 596.351 441.416 596.674 441.284L597.07 442.626C596.674 442.817 596.241 442.971 595.772 443.088C595.302 443.205 594.796 443.264 594.254 443.264C593.359 443.264 592.728 443.015 592.362 442.516C591.995 442.003 591.812 441.152 591.812 439.964V433.54H590.096V432Z" fill="black"/>
<path d="M635.086 432.924L633.898 430.702H633.81L634.03 432.924V443H632.314V427.358H633.282L640.652 437.632L641.796 439.744H641.906L641.664 437.632V427.6H643.38V443.242H642.412L635.086 432.924ZM646.325 437.5C646.325 435.637 646.736 434.215 647.557 433.232C648.393 432.235 649.588 431.736 651.143 431.736C651.964 431.736 652.676 431.875 653.277 432.154C653.893 432.418 654.399 432.807 654.795 433.32C655.191 433.819 655.484 434.427 655.675 435.146C655.866 435.85 655.961 436.635 655.961 437.5C655.961 439.363 655.543 440.793 654.707 441.79C653.886 442.773 652.698 443.264 651.143 443.264C650.322 443.264 649.603 443.132 648.987 442.868C648.386 442.589 647.887 442.201 647.491 441.702C647.095 441.189 646.802 440.58 646.611 439.876C646.42 439.157 646.325 438.365 646.325 437.5ZM648.151 437.5C648.151 438.057 648.202 438.593 648.305 439.106C648.422 439.619 648.598 440.067 648.833 440.448C649.068 440.829 649.376 441.137 649.757 441.372C650.138 441.607 650.6 441.724 651.143 441.724C653.138 441.739 654.135 440.331 654.135 437.5C654.135 436.928 654.076 436.385 653.959 435.872C653.856 435.359 653.688 434.911 653.453 434.53C653.218 434.149 652.91 433.848 652.529 433.628C652.148 433.393 651.686 433.276 651.143 433.276C649.148 433.261 648.151 434.669 648.151 437.5ZM661.646 438.446L662.262 440.536H662.284L662.834 438.402L665.298 432H667.19L662.504 443.242H661.756L656.982 432H659.006L661.646 438.446Z" fill="black"/>
<path d="M701.87 427.6C702.149 427.556 702.457 427.527 702.794 427.512C703.146 427.483 703.505 427.468 703.872 427.468C704.253 427.453 704.62 427.446 704.972 427.446C705.339 427.431 705.676 427.424 705.984 427.424C707.216 427.424 708.279 427.615 709.174 427.996C710.083 428.377 710.831 428.913 711.418 429.602C712.005 430.277 712.437 431.091 712.716 432.044C713.009 432.997 713.156 434.046 713.156 435.19C713.156 436.231 713.017 437.236 712.738 438.204C712.474 439.157 712.049 440.008 711.462 440.756C710.875 441.489 710.113 442.083 709.174 442.538C708.235 442.978 707.099 443.198 705.764 443.198C705.529 443.198 705.221 443.191 704.84 443.176C704.473 443.176 704.092 443.161 703.696 443.132C703.3 443.117 702.933 443.103 702.596 443.088C702.259 443.073 702.017 443.051 701.87 443.022V427.6ZM706.028 429.052C705.837 429.052 705.625 429.052 705.39 429.052C705.17 429.052 704.95 429.059 704.73 429.074C704.51 429.089 704.305 429.103 704.114 429.118C703.938 429.133 703.799 429.147 703.696 429.162V441.482C703.769 441.497 703.909 441.511 704.114 441.526C704.319 441.526 704.532 441.533 704.752 441.548C704.972 441.548 705.185 441.555 705.39 441.57C705.595 441.57 705.735 441.57 705.808 441.57C706.835 441.57 707.693 441.394 708.382 441.042C709.086 440.69 709.643 440.221 710.054 439.634C710.479 439.033 710.78 438.351 710.956 437.588C711.132 436.811 711.22 436.011 711.22 435.19C711.22 434.471 711.139 433.753 710.978 433.034C710.817 432.301 710.538 431.641 710.142 431.054C709.746 430.467 709.211 429.991 708.536 429.624C707.876 429.243 707.04 429.052 706.028 429.052ZM724.119 442.12C723.679 442.472 723.121 442.751 722.447 442.956C721.787 443.161 721.083 443.264 720.335 443.264C719.499 443.264 718.773 443.132 718.157 442.868C717.541 442.589 717.035 442.201 716.639 441.702C716.243 441.189 715.949 440.58 715.759 439.876C715.568 439.172 715.473 438.38 715.473 437.5C715.473 435.623 715.891 434.193 716.727 433.21C717.563 432.227 718.758 431.736 720.313 431.736C720.811 431.736 721.31 431.795 721.809 431.912C722.307 432.015 722.755 432.22 723.151 432.528C723.547 432.836 723.869 433.276 724.119 433.848C724.368 434.405 724.493 435.146 724.493 436.07C724.493 436.554 724.449 437.089 724.361 437.676H717.299C717.299 438.321 717.365 438.893 717.497 439.392C717.629 439.891 717.834 440.316 718.113 440.668C718.391 441.005 718.751 441.269 719.191 441.46C719.645 441.636 720.195 441.724 720.841 441.724C721.339 441.724 721.838 441.636 722.337 441.46C722.835 441.284 723.209 441.079 723.459 440.844L724.119 442.12ZM720.335 433.276C719.469 433.276 718.773 433.503 718.245 433.958C717.731 434.413 717.423 435.19 717.321 436.29H722.777C722.777 435.175 722.564 434.398 722.139 433.958C721.713 433.503 721.112 433.276 720.335 433.276ZM734.526 442.274C734.086 442.597 733.565 442.839 732.964 443C732.363 443.176 731.732 443.264 731.072 443.264C730.221 443.264 729.503 443.132 728.916 442.868C728.329 442.589 727.845 442.201 727.464 441.702C727.097 441.189 726.826 440.58 726.65 439.876C726.489 439.157 726.408 438.365 726.408 437.5C726.408 435.637 726.819 434.215 727.64 433.232C728.461 432.235 729.642 431.736 731.182 431.736C731.886 431.736 732.48 431.795 732.964 431.912C733.463 432.015 733.91 432.169 734.306 432.374L733.8 433.892C733.463 433.701 733.089 433.555 732.678 433.452C732.267 433.335 731.827 433.276 731.358 433.276C729.275 433.276 728.234 434.684 728.234 437.5C728.234 438.057 728.285 438.593 728.388 439.106C728.505 439.605 728.689 440.052 728.938 440.448C729.202 440.829 729.539 441.137 729.95 441.372C730.375 441.607 730.896 441.724 731.512 441.724C732.04 441.724 732.509 441.643 732.92 441.482C733.345 441.321 733.69 441.137 733.954 440.932L734.526 442.274Z" fill="black"/>
<path d="M72.376 133.372H75.456V122.724L75.676 121.426L74.796 122.46L72.376 124.198L71.54 123.076L76.38 119.336H77.172V133.372H80.186V135H72.376V133.372ZM91.8003 123.098C91.8003 123.875 91.6536 124.675 91.3603 125.496C91.0816 126.303 90.7076 127.117 90.2383 127.938C89.7836 128.759 89.2703 129.566 88.6983 130.358C88.1263 131.135 87.5543 131.876 86.9823 132.58L85.9043 133.526V133.614L87.3123 133.372H92.1083V135H83.3523V134.362C83.6749 134.025 84.0636 133.607 84.5183 133.108C84.9729 132.609 85.4423 132.059 85.9263 131.458C86.4249 130.842 86.9089 130.197 87.3783 129.522C87.8623 128.833 88.2949 128.136 88.6763 127.432C89.0723 126.728 89.3876 126.031 89.6223 125.342C89.8569 124.653 89.9743 124 89.9743 123.384C89.9743 122.665 89.7689 122.071 89.3583 121.602C88.9476 121.118 88.3243 120.876 87.4883 120.876C86.9309 120.876 86.3883 120.993 85.8603 121.228C85.3323 121.448 84.8776 121.705 84.4963 121.998L83.7703 120.744C84.2836 120.304 84.8923 119.959 85.5963 119.71C86.3003 119.461 87.0556 119.336 87.8623 119.336C88.4929 119.336 89.0503 119.431 89.5343 119.622C90.0183 119.798 90.4289 120.055 90.7663 120.392C91.1036 120.729 91.3603 121.133 91.5363 121.602C91.7123 122.057 91.8003 122.555 91.8003 123.098ZM98.4426 130.05H97.4306V135H95.6706V119.6H97.4306V128.972L98.3326 128.664L101.743 124H103.789L100.423 128.422L99.5206 129.148L100.621 130.028L104.295 135H102.117L98.4426 130.05Z" fill="black"/>
<path d="M72.376 178.205H75.456V167.557L75.676 166.259L74.796 167.293L72.376 169.031L71.54 167.909L76.38 164.169H77.172V178.205H80.186V179.833H72.376V178.205ZM82.9343 172.133C82.9343 169.493 83.3596 167.506 84.2103 166.171C85.0756 164.837 86.3296 164.169 87.9723 164.169C89.7469 164.169 91.0303 164.829 91.8223 166.149C92.6289 167.455 93.0323 169.449 93.0323 172.133C93.0323 174.773 92.5996 176.761 91.7343 178.095C90.8836 179.43 89.6296 180.097 87.9723 180.097C86.2269 180.097 84.9509 179.401 84.1443 178.007C83.3376 176.614 82.9343 174.656 82.9343 172.133ZM84.7603 172.133C84.7603 173.087 84.8189 173.959 84.9363 174.751C85.0683 175.529 85.2663 176.203 85.5303 176.775C85.7943 177.333 86.1243 177.773 86.5203 178.095C86.9309 178.403 87.4149 178.557 87.9723 178.557C89.0869 178.557 89.9009 178.044 90.4143 177.017C90.9423 175.976 91.2063 174.348 91.2063 172.133C91.2063 171.195 91.1476 170.329 91.0303 169.537C90.9276 168.745 90.7443 168.063 90.4803 167.491C90.2309 166.919 89.9009 166.479 89.4903 166.171C89.0796 165.863 88.5736 165.709 87.9723 165.709C86.8723 165.709 86.0583 166.23 85.5303 167.271C85.0169 168.313 84.7603 169.933 84.7603 172.133ZM98.4426 174.883H97.4306V179.833H95.6706V164.433H97.4306V173.805L98.3326 173.497L101.743 168.833H103.789L100.423 173.255L99.5206 173.981L100.621 174.861L104.295 179.833H102.117L98.4426 174.883Z" fill="black"/>
<path d="M77.496 220.993C77.496 220.069 77.738 219.269 78.222 218.595C78.706 217.905 79.4613 217.282 80.488 216.725C80.1213 216.505 79.7767 216.277 79.454 216.043C79.146 215.793 78.8673 215.515 78.618 215.207C78.3833 214.899 78.1927 214.554 78.046 214.173C77.914 213.791 77.848 213.351 77.848 212.853C77.848 212.281 77.9433 211.76 78.134 211.291C78.3393 210.821 78.6253 210.418 78.992 210.081C79.3733 209.743 79.8207 209.479 80.334 209.289C80.862 209.098 81.456 209.003 82.116 209.003C82.732 209.003 83.2893 209.091 83.788 209.267C84.2867 209.443 84.7047 209.685 85.042 209.993C85.394 210.301 85.6653 210.667 85.856 211.093C86.0467 211.518 86.142 211.987 86.142 212.501C86.142 213.337 85.9513 214.077 85.57 214.723C85.1887 215.353 84.558 215.977 83.678 216.593C84.0593 216.813 84.4187 217.055 84.756 217.319C85.108 217.583 85.4087 217.876 85.658 218.199C85.922 218.521 86.1273 218.888 86.274 219.299C86.4207 219.695 86.494 220.149 86.494 220.663C86.494 221.293 86.3913 221.873 86.186 222.401C85.9807 222.914 85.68 223.361 85.284 223.743C84.888 224.109 84.404 224.403 83.832 224.623C83.26 224.828 82.6073 224.931 81.874 224.931C81.17 224.931 80.5467 224.828 80.004 224.623C79.4613 224.417 78.9993 224.139 78.618 223.787C78.2513 223.435 77.9727 223.024 77.782 222.555C77.5913 222.071 77.496 221.55 77.496 220.993ZM84.778 220.773C84.778 220.333 84.69 219.951 84.514 219.629C84.338 219.291 84.1033 218.991 83.81 218.727C83.5313 218.448 83.2087 218.199 82.842 217.979C82.4753 217.759 82.094 217.546 81.698 217.341C80.8033 217.839 80.1653 218.397 79.784 219.013C79.4027 219.629 79.212 220.215 79.212 220.773C79.212 221.125 79.2707 221.462 79.388 221.785C79.5053 222.107 79.6813 222.386 79.916 222.621C80.1507 222.855 80.4367 223.046 80.774 223.193C81.126 223.325 81.5293 223.391 81.984 223.391C82.3507 223.391 82.7027 223.339 83.04 223.237C83.3773 223.119 83.6707 222.958 83.92 222.753C84.184 222.533 84.3893 222.261 84.536 221.939C84.6973 221.601 84.778 221.213 84.778 220.773ZM79.564 212.809C79.564 213.219 79.6447 213.586 79.806 213.909C79.9673 214.217 80.18 214.495 80.444 214.745C80.7227 214.994 81.038 215.229 81.39 215.449C81.742 215.654 82.1087 215.852 82.49 216.043C83.15 215.529 83.634 215.023 83.942 214.525C84.2647 214.026 84.426 213.476 84.426 212.875C84.426 212.127 84.1913 211.555 83.722 211.159C83.2673 210.748 82.7173 210.543 82.072 210.543C81.676 210.543 81.324 210.609 81.016 210.741C80.708 210.873 80.444 211.041 80.224 211.247C80.004 211.452 79.8353 211.694 79.718 211.973C79.6153 212.237 79.564 212.515 79.564 212.809ZM92.4543 219.717H91.4423V224.667H89.6823V209.267H91.4423V218.639L92.3443 218.331L95.7543 213.667H97.8003L94.4343 218.089L93.5323 218.815L94.6323 219.695L98.3063 224.667H96.1283L92.4543 219.717Z" fill="black"/>
<path d="M86.824 264.858C86.824 265.533 86.7213 266.171 86.516 266.772C86.3107 267.359 86.01 267.879 85.614 268.334C85.218 268.774 84.7267 269.126 84.14 269.39C83.5533 269.639 82.886 269.764 82.138 269.764C81.4047 269.764 80.7447 269.647 80.158 269.412C79.5713 269.177 79.0653 268.833 78.64 268.378C78.2147 267.909 77.8847 267.337 77.65 266.662C77.43 265.987 77.32 265.21 77.32 264.33C77.32 262.878 77.5033 261.543 77.87 260.326C78.2513 259.094 78.772 258.023 79.432 257.114C80.092 256.205 80.8693 255.471 81.764 254.914C82.6733 254.342 83.656 253.983 84.712 253.836L85.086 255.244C84.2647 255.391 83.5167 255.669 82.842 256.08C82.1673 256.491 81.5733 256.997 81.06 257.598C80.5613 258.199 80.1507 258.874 79.828 259.622C79.5053 260.37 79.2853 261.14 79.168 261.932C79.4027 261.536 79.7987 261.177 80.356 260.854C80.9133 260.517 81.5953 260.348 82.402 260.348C83.7807 260.348 84.8587 260.744 85.636 261.536C86.428 262.328 86.824 263.435 86.824 264.858ZM84.998 265.034C84.998 263.993 84.756 263.208 84.272 262.68C83.788 262.152 83.04 261.888 82.028 261.888C81.3093 261.888 80.686 262.064 80.158 262.416C79.6447 262.768 79.2853 263.164 79.08 263.604C79.0507 263.809 79.036 263.978 79.036 264.11C79.036 264.242 79.036 264.389 79.036 264.55C79.036 265.005 79.0947 265.452 79.212 265.892C79.344 266.332 79.542 266.728 79.806 267.08C80.07 267.417 80.3927 267.696 80.774 267.916C81.17 268.121 81.632 268.224 82.16 268.224C82.5853 268.224 82.9667 268.143 83.304 267.982C83.656 267.821 83.9567 267.601 84.206 267.322C84.4553 267.043 84.646 266.706 84.778 266.31C84.9247 265.914 84.998 265.489 84.998 265.034ZM92.4543 264.55H91.4423V269.5H89.6823V254.1H91.4423V263.472L92.3443 263.164L95.7543 258.5H97.8003L94.4343 262.922L93.5323 263.648L94.6323 264.528L98.3063 269.5H96.1283L92.4543 264.55Z" fill="black"/>
<path d="M87.528 309.603H84.932V314.333H83.216V309.603H76.44V308.877L83.744 298.691H84.932V308.063H87.528V309.603ZM83.216 303.267L83.436 301.463H83.37L82.6 302.959L79.498 307.161L78.442 308.239L79.982 308.063H83.216V303.267ZM92.4543 309.383H91.4423V314.333H89.6823V298.933H91.4423V308.305L92.3443 307.997L95.7543 303.333H97.8003L94.4343 307.755L93.5323 308.481L94.6323 309.361L98.3063 314.333H96.1283L92.4543 309.383Z" fill="black"/>
<path d="M85.812 347.265C85.812 348.042 85.6653 348.841 85.372 349.663C85.0933 350.469 84.7193 351.283 84.25 352.105C83.7953 352.926 83.282 353.733 82.71 354.525C82.138 355.302 81.566 356.043 80.994 356.747L79.916 357.693V357.781L81.324 357.539H86.12V359.167H77.364V358.529C77.6867 358.191 78.0753 357.773 78.53 357.275C78.9847 356.776 79.454 356.226 79.938 355.625C80.4367 355.009 80.9207 354.363 81.39 353.689C81.874 352.999 82.3067 352.303 82.688 351.599C83.084 350.895 83.3993 350.198 83.634 349.509C83.8687 348.819 83.986 348.167 83.986 347.551C83.986 346.832 83.7807 346.238 83.37 345.769C82.9593 345.285 82.336 345.043 81.5 345.043C80.9427 345.043 80.4 345.16 79.872 345.395C79.344 345.615 78.8893 345.871 78.508 346.165L77.782 344.911C78.2953 344.471 78.904 344.126 79.608 343.877C80.312 343.627 81.0673 343.503 81.874 343.503C82.5047 343.503 83.062 343.598 83.546 343.789C84.03 343.965 84.4407 344.221 84.778 344.559C85.1153 344.896 85.372 345.299 85.548 345.769C85.724 346.223 85.812 346.722 85.812 347.265ZM92.4543 354.217H91.4423V359.167H89.6823V343.767H91.4423V353.139L92.3443 352.831L95.7543 348.167H97.8003L94.4343 352.589L93.5323 353.315L94.6323 354.195L98.3063 359.167H96.1283L92.4543 354.217Z" fill="black"/>
<path d="M82.446 396.3C82.446 393.66 82.8713 391.673 83.722 390.338C84.5873 389.003 85.8413 388.336 87.484 388.336C89.2587 388.336 90.542 388.996 91.334 390.316C92.1407 391.621 92.544 393.616 92.544 396.3C92.544 398.94 92.1113 400.927 91.246 402.262C90.3953 403.597 89.1413 404.264 87.484 404.264C85.7387 404.264 84.4627 403.567 83.656 402.174C82.8493 400.781 82.446 398.823 82.446 396.3ZM84.272 396.3C84.272 397.253 84.3307 398.126 84.448 398.918C84.58 399.695 84.778 400.37 85.042 400.942C85.306 401.499 85.636 401.939 86.032 402.262C86.4427 402.57 86.9267 402.724 87.484 402.724C88.5987 402.724 89.4127 402.211 89.926 401.184C90.454 400.143 90.718 398.515 90.718 396.3C90.718 395.361 90.6593 394.496 90.542 393.704C90.4393 392.912 90.256 392.23 89.992 391.658C89.7427 391.086 89.4127 390.646 89.002 390.338C88.5913 390.03 88.0853 389.876 87.484 389.876C86.384 389.876 85.57 390.397 85.042 391.438C84.5287 392.479 84.272 394.1 84.272 396.3Z" fill="black"/>
<path d="M71.32 65.6H80.45V68.284H74.334V71.87H79.9V74.554H74.334V78.316H80.56V81H71.32V65.6ZM85.2341 75.368L81.9341 70H85.3441L86.7741 72.354L87.3901 73.894L88.0501 72.354L89.5461 70H92.6481L89.3261 75.28L92.8681 81H89.5461L87.8521 78.36L87.1921 76.732L86.4881 78.36L84.7941 81H81.6701L85.2341 75.368ZM94.3067 70H96.3967L96.7267 71.32H96.8147C97.1961 70.7627 97.6434 70.352 98.1567 70.088C98.6847 69.824 99.3227 69.692 100.071 69.692C101.449 69.692 102.483 70.132 103.173 71.012C103.862 71.8773 104.207 73.278 104.207 75.214C104.207 76.1527 104.097 77.0033 103.877 77.766C103.657 78.514 103.327 79.152 102.887 79.68C102.461 80.208 101.933 80.6113 101.303 80.89C100.687 81.1687 99.9754 81.308 99.1687 81.308C98.7141 81.308 98.3401 81.2713 98.0467 81.198C97.7534 81.1393 97.4601 81.0367 97.1667 80.89V85.4H94.3067V70ZM99.2127 72.112C98.6554 72.112 98.2154 72.2513 97.8927 72.53C97.5847 72.8087 97.3427 73.2267 97.1667 73.784V78.36C97.3721 78.5213 97.5921 78.6533 97.8267 78.756C98.0761 78.844 98.3987 78.888 98.7947 78.888C99.6161 78.888 100.232 78.602 100.643 78.03C101.053 77.4433 101.259 76.4827 101.259 75.148C101.259 74.18 101.097 73.432 100.775 72.904C100.452 72.376 99.9314 72.112 99.2127 72.112ZM114.988 80.054C114.548 80.406 113.946 80.7067 113.184 80.956C112.436 81.1907 111.636 81.308 110.786 81.308C109.011 81.308 107.713 80.7947 106.892 79.768C106.07 78.7267 105.66 77.304 105.66 75.5C105.66 73.564 106.122 72.112 107.046 71.144C107.97 70.176 109.268 69.692 110.94 69.692C111.497 69.692 112.04 69.7653 112.568 69.912C113.096 70.0587 113.565 70.3007 113.976 70.638C114.386 70.9753 114.716 71.43 114.966 72.002C115.215 72.574 115.34 73.2853 115.34 74.136C115.34 74.444 115.318 74.774 115.274 75.126C115.244 75.478 115.193 75.8447 115.12 76.226H108.52C108.564 77.15 108.798 77.8467 109.224 78.316C109.664 78.7853 110.368 79.02 111.336 79.02C111.937 79.02 112.472 78.932 112.942 78.756C113.426 78.5653 113.792 78.3747 114.042 78.184L114.988 80.054ZM110.896 71.98C110.148 71.98 109.59 72.2073 109.224 72.662C108.872 73.102 108.659 73.696 108.586 74.444H112.678C112.736 73.652 112.612 73.0433 112.304 72.618C112.01 72.1927 111.541 71.98 110.896 71.98ZM124.091 81V74.752C124.091 73.8573 123.959 73.212 123.695 72.816C123.446 72.42 123.013 72.222 122.397 72.222C121.855 72.222 121.393 72.3833 121.011 72.706C120.645 73.014 120.381 73.4027 120.219 73.872V81H117.359V70H119.625L119.955 71.452H120.043C120.381 70.9827 120.828 70.572 121.385 70.22C121.943 69.868 122.661 69.692 123.541 69.692C124.084 69.692 124.568 69.7653 124.993 69.912C125.419 70.0587 125.778 70.3007 126.071 70.638C126.365 70.9753 126.585 71.4373 126.731 72.024C126.878 72.596 126.951 73.3073 126.951 74.158V81H124.091ZM133.902 77.964C133.902 77.6707 133.777 77.436 133.528 77.26C133.278 77.084 132.97 76.9227 132.604 76.776C132.237 76.6293 131.834 76.4827 131.394 76.336C130.954 76.1747 130.55 75.962 130.184 75.698C129.817 75.4193 129.509 75.0747 129.26 74.664C129.01 74.2387 128.886 73.696 128.886 73.036C128.886 71.9507 129.208 71.122 129.854 70.55C130.499 69.978 131.43 69.692 132.648 69.692C133.484 69.692 134.239 69.78 134.914 69.956C135.588 70.132 136.116 70.33 136.498 70.55L135.86 72.618C135.522 72.486 135.097 72.3467 134.584 72.2C134.07 72.0533 133.55 71.98 133.022 71.98C132.171 71.98 131.746 72.31 131.746 72.97C131.746 73.234 131.87 73.4467 132.12 73.608C132.369 73.7693 132.677 73.9233 133.044 74.07C133.41 74.202 133.814 74.3487 134.254 74.51C134.694 74.6713 135.097 74.884 135.464 75.148C135.83 75.3973 136.138 75.7273 136.388 76.138C136.637 76.5487 136.762 77.0767 136.762 77.722C136.762 78.8367 136.402 79.7167 135.684 80.362C134.98 80.9927 133.916 81.308 132.494 81.308C131.716 81.308 130.983 81.2053 130.294 81C129.619 80.8093 129.069 80.582 128.644 80.318L129.436 78.184C129.773 78.3747 130.22 78.5653 130.778 78.756C131.335 78.932 131.907 79.02 132.494 79.02C132.919 79.02 133.256 78.9393 133.506 78.778C133.77 78.6167 133.902 78.3453 133.902 77.964ZM147.429 80.054C146.989 80.406 146.388 80.7067 145.625 80.956C144.877 81.1907 144.078 81.308 143.227 81.308C141.452 81.308 140.154 80.7947 139.333 79.768C138.512 78.7267 138.101 77.304 138.101 75.5C138.101 73.564 138.563 72.112 139.487 71.144C140.411 70.176 141.709 69.692 143.381 69.692C143.938 69.692 144.481 69.7653 145.009 69.912C145.537 70.0587 146.006 70.3007 146.417 70.638C146.828 70.9753 147.158 71.43 147.407 72.002C147.656 72.574 147.781 73.2853 147.781 74.136C147.781 74.444 147.759 74.774 147.715 75.126C147.686 75.478 147.634 75.8447 147.561 76.226H140.961C141.005 77.15 141.24 77.8467 141.665 78.316C142.105 78.7853 142.809 79.02 143.777 79.02C144.378 79.02 144.914 78.932 145.383 78.756C145.867 78.5653 146.234 78.3747 146.483 78.184L147.429 80.054ZM143.337 71.98C142.589 71.98 142.032 72.2073 141.665 72.662C141.313 73.102 141.1 73.696 141.027 74.444H145.119C145.178 73.652 145.053 73.0433 144.745 72.618C144.452 72.1927 143.982 71.98 143.337 71.98ZM154.355 77.964C154.355 77.6707 154.23 77.436 153.981 77.26C153.732 77.084 153.424 76.9227 153.057 76.776C152.69 76.6293 152.287 76.4827 151.847 76.336C151.407 76.1747 151.004 75.962 150.637 75.698C150.27 75.4193 149.962 75.0747 149.713 74.664C149.464 74.2387 149.339 73.696 149.339 73.036C149.339 71.9507 149.662 71.122 150.307 70.55C150.952 69.978 151.884 69.692 153.101 69.692C153.937 69.692 154.692 69.78 155.367 69.956C156.042 70.132 156.57 70.33 156.951 70.55L156.313 72.618C155.976 72.486 155.55 72.3467 155.037 72.2C154.524 72.0533 154.003 71.98 153.475 71.98C152.624 71.98 152.199 72.31 152.199 72.97C152.199 73.234 152.324 73.4467 152.573 73.608C152.822 73.7693 153.13 73.9233 153.497 74.07C153.864 74.202 154.267 74.3487 154.707 74.51C155.147 74.6713 155.55 74.884 155.917 75.148C156.284 75.3973 156.592 75.7273 156.841 76.138C157.09 76.5487 157.215 77.0767 157.215 77.722C157.215 78.8367 156.856 79.7167 156.137 80.362C155.433 80.9927 154.37 81.308 152.947 81.308C152.17 81.308 151.436 81.2053 150.747 81C150.072 80.8093 149.522 80.582 149.097 80.318L149.889 78.184C150.226 78.3747 150.674 78.5653 151.231 78.756C151.788 78.932 152.36 79.02 152.947 79.02C153.372 79.02 153.71 78.9393 153.959 78.778C154.223 78.6167 154.355 78.3453 154.355 77.964Z" fill="black"/>
<rect x="603.5" y="59.5" width="144" height="35" rx="11.5" fill="white" stroke="#515961"/>
<path d="M625.45 73.362C625.45 74.11 625.311 74.8653 625.032 75.628C624.768 76.3907 624.423 77.1387 623.998 77.872C623.587 78.6053 623.125 79.3167 622.612 80.006C622.113 80.6807 621.622 81.304 621.138 81.876L619.972 82.778V82.888L621.556 82.58H625.78V85H616.518V83.526C616.87 83.1593 617.266 82.734 617.706 82.25C618.146 81.7513 618.586 81.2307 619.026 80.688C619.481 80.1307 619.921 79.5587 620.346 78.972C620.771 78.3853 621.153 77.7987 621.49 77.212C621.827 76.6107 622.091 76.0313 622.282 75.474C622.487 74.9167 622.59 74.3887 622.59 73.89C622.59 73.2887 622.414 72.7973 622.062 72.416C621.725 72.02 621.182 71.822 620.434 71.822C619.965 71.822 619.481 71.9247 618.982 72.13C618.498 72.3207 618.087 72.57 617.75 72.878L616.606 70.854C617.178 70.3847 617.823 70.0107 618.542 69.732C619.275 69.4387 620.133 69.292 621.116 69.292C621.747 69.292 622.326 69.38 622.854 69.556C623.382 69.732 623.837 69.9887 624.218 70.326C624.599 70.6633 624.9 71.0887 625.12 71.602C625.34 72.1007 625.45 72.6873 625.45 73.362ZM628.362 77.278C628.362 74.5793 628.824 72.5773 629.748 71.272C630.672 69.952 632 69.292 633.73 69.292C635.578 69.292 636.935 69.9447 637.8 71.25C638.666 72.5407 639.098 74.55 639.098 77.278C639.098 79.9913 638.629 82.008 637.69 83.328C636.766 84.648 635.439 85.308 633.708 85.308C631.875 85.308 630.526 84.6187 629.66 83.24C628.795 81.8467 628.362 79.8593 628.362 77.278ZM631.222 77.278C631.222 79.0673 631.413 80.4533 631.794 81.436C632.19 82.404 632.836 82.888 633.73 82.888C634.596 82.888 635.226 82.4407 635.622 81.546C636.033 80.6513 636.238 79.2287 636.238 77.278C636.238 75.5033 636.048 74.132 635.666 73.164C635.285 72.196 634.632 71.712 633.708 71.712C632.828 71.712 632.19 72.1667 631.794 73.076C631.413 73.9853 631.222 75.386 631.222 77.278ZM650.415 73.362C650.415 74.11 650.276 74.8653 649.997 75.628C649.733 76.3907 649.388 77.1387 648.963 77.872C648.552 78.6053 648.09 79.3167 647.577 80.006C647.078 80.6807 646.587 81.304 646.103 81.876L644.937 82.778V82.888L646.521 82.58H650.745V85H641.483V83.526C641.835 83.1593 642.231 82.734 642.671 82.25C643.111 81.7513 643.551 81.2307 643.991 80.688C644.446 80.1307 644.886 79.5587 645.311 78.972C645.736 78.3853 646.118 77.7987 646.455 77.212C646.792 76.6107 647.056 76.0313 647.247 75.474C647.452 74.9167 647.555 74.3887 647.555 73.89C647.555 73.2887 647.379 72.7973 647.027 72.416C646.69 72.02 646.147 71.822 645.399 71.822C644.93 71.822 644.446 71.9247 643.947 72.13C643.463 72.3207 643.052 72.57 642.715 72.878L641.571 70.854C642.143 70.3847 642.788 70.0107 643.507 69.732C644.24 69.4387 645.098 69.292 646.081 69.292C646.712 69.292 647.291 69.38 647.819 69.556C648.347 69.732 648.802 69.9887 649.183 70.326C649.564 70.6633 649.865 71.0887 650.085 71.602C650.305 72.1007 650.415 72.6873 650.415 73.362ZM662.897 73.362C662.897 74.11 662.758 74.8653 662.479 75.628C662.215 76.3907 661.871 77.1387 661.445 77.872C661.035 78.6053 660.573 79.3167 660.059 80.006C659.561 80.6807 659.069 81.304 658.585 81.876L657.419 82.778V82.888L659.003 82.58H663.227V85H653.965V83.526C654.317 83.1593 654.713 82.734 655.153 82.25C655.593 81.7513 656.033 81.2307 656.473 80.688C656.928 80.1307 657.368 79.5587 657.793 78.972C658.219 78.3853 658.6 77.7987 658.937 77.212C659.275 76.6107 659.539 76.0313 659.729 75.474C659.935 74.9167 660.037 74.3887 660.037 73.89C660.037 73.2887 659.861 72.7973 659.509 72.416C659.172 72.02 658.629 71.822 657.881 71.822C657.412 71.822 656.928 71.9247 656.429 72.13C655.945 72.3207 655.535 72.57 655.197 72.878L654.053 70.854C654.625 70.3847 655.271 70.0107 655.989 69.732C656.723 69.4387 657.581 69.292 658.563 69.292C659.194 69.292 659.773 69.38 660.301 69.556C660.829 69.732 661.284 69.9887 661.665 70.326C662.047 70.6633 662.347 71.0887 662.567 71.602C662.787 72.1007 662.897 72.6873 662.897 73.362Z" fill="#212529"/>
<path d="M724.454 73L729.186 77.7222L733.919 73L735.372 74.4538L729.186 80.64L723 74.4538L724.454 73Z" fill="black"/>
<line x1="105" y1="243.5" x2="748" y2="243.5" stroke="#D4D9DD" stroke-dasharray="2 2"/>
<line x1="123.5" y1="122" x2="123.5" y2="418" stroke="#D4D9DD"/>
<line x1="188.5" y1="122" x2="188.5" y2="418" stroke="#D4D9DD"/>
<line x1="256.5" y1="122" x2="256.5" y2="418" stroke="#D4D9DD"/>
<line x1="324.5" y1="122" x2="324.5" y2="418" stroke="#D4D9DD"/>
<line x1="392.5" y1="122" x2="392.5" y2="418" stroke="#D4D9DD"/>
<line x1="460.5" y1="122" x2="460.5" y2="418" stroke="#D4D9DD"/>
<line x1="520.5" y1="122" x2="520.5" y2="418" stroke="#D4D9DD"/>
<line x1="581.5" y1="121" x2="581.5" y2="417" stroke="#D4D9DD"/>
<line x1="649.5" y1="121" x2="649.5" y2="417" stroke="#D4D9DD"/>
<line x1="723.5" y1="121" x2="723.5" y2="417" stroke="#D4D9DD"/>
<g filter="url(#filter1_d_414_61)">
<path d="M108.5 352C108.5 352 127.5 342.5 134 333.5C140.5 324.5 148.047 305.982 163.5 307C175.582 307.796 178.5 327.5 188 326C197.5 324.5 198 315 211.5 300C225 285 233.777 274.989 252 276.5C264.272 277.517 268.144 287.673 280 291C295.792 295.431 305.598 291 322 291C339.183 291 350.005 297.278 366 291C379.058 285.875 383 280 394 268.5C405 257 408.887 248.44 423 243.5C437.956 238.265 452.5 240 463.5 246C474.5 252 488.744 274.721 508.5 271C526.69 267.574 539 233 541 236.5C543 240 549 262.5 552 271C555 279.5 555.496 293.086 566 300C577.254 307.408 588.571 293.737 600.5 300C607.713 303.788 607.711 312.109 615.5 314.5C627.438 318.164 638 308 644 300C650 292 664 260 674 246C684 232 695.5 228.5 700.5 227C705.5 225.5 743 216 743 216" stroke="#68A691" stroke-width="3" stroke-linecap="round"/>
</g>
<g filter="url(#filter2_dd_414_61)">
<rect x="367" y="213" width="113" height="22" rx="6" fill="#212529"/>
</g>
<path d="M449.61 227.9C449.544 227.9 449.493 227.879 449.457 227.837C449.421 227.801 449.403 227.753 449.403 227.693V227.063C448.965 227.027 448.596 226.928 448.296 226.766C447.996 226.598 447.768 226.397 447.612 226.163C447.456 225.929 447.372 225.68 447.36 225.416C447.36 225.368 447.378 225.326 447.414 225.29C447.456 225.248 447.504 225.227 447.558 225.227H448.017C448.089 225.227 448.143 225.245 448.179 225.281C448.215 225.317 448.239 225.359 448.251 225.407C448.287 225.551 448.362 225.695 448.476 225.839C448.59 225.977 448.752 226.094 448.962 226.19C449.178 226.28 449.454 226.325 449.79 226.325C450.306 226.325 450.684 226.235 450.924 226.055C451.17 225.869 451.293 225.623 451.293 225.317C451.293 225.107 451.227 224.939 451.095 224.813C450.969 224.681 450.774 224.564 450.51 224.462C450.246 224.36 449.904 224.249 449.484 224.129C449.046 224.003 448.683 223.865 448.395 223.715C448.107 223.565 447.891 223.379 447.747 223.157C447.609 222.935 447.54 222.653 447.54 222.311C447.54 221.873 447.702 221.498 448.026 221.186C448.35 220.868 448.809 220.682 449.403 220.628V220.007C449.403 219.947 449.421 219.899 449.457 219.863C449.493 219.821 449.544 219.8 449.61 219.8H449.952C450.012 219.8 450.06 219.821 450.096 219.863C450.138 219.899 450.159 219.947 450.159 220.007V220.637C450.561 220.685 450.897 220.796 451.167 220.97C451.437 221.144 451.641 221.345 451.779 221.573C451.917 221.801 451.989 222.023 451.995 222.239C451.995 222.281 451.98 222.323 451.95 222.365C451.92 222.401 451.872 222.419 451.806 222.419H451.329C451.287 222.419 451.242 222.407 451.194 222.383C451.152 222.359 451.119 222.314 451.095 222.248C451.059 222.002 450.921 221.795 450.681 221.627C450.441 221.459 450.129 221.375 449.745 221.375C449.355 221.375 449.037 221.45 448.791 221.6C448.551 221.75 448.431 221.984 448.431 222.302C448.431 222.506 448.488 222.677 448.602 222.815C448.716 222.947 448.896 223.064 449.142 223.166C449.388 223.268 449.709 223.376 450.105 223.49C450.585 223.622 450.978 223.763 451.284 223.913C451.59 224.057 451.815 224.24 451.959 224.462C452.109 224.678 452.184 224.957 452.184 225.299C452.184 225.641 452.1 225.938 451.932 226.19C451.77 226.442 451.536 226.643 451.23 226.793C450.93 226.943 450.573 227.036 450.159 227.072V227.693C450.159 227.753 450.138 227.801 450.096 227.837C450.06 227.879 450.012 227.9 449.952 227.9H449.61ZM455.418 227C455.358 227 455.307 226.982 455.265 226.946C455.229 226.904 455.211 226.853 455.211 226.793V226.505C455.211 226.451 455.226 226.391 455.256 226.325C455.286 226.259 455.346 226.187 455.436 226.109L457.344 224.201C457.65 223.943 457.89 223.724 458.064 223.544C458.244 223.358 458.37 223.181 458.442 223.013C458.52 222.845 458.559 222.671 458.559 222.491C458.559 222.149 458.463 221.879 458.271 221.681C458.079 221.477 457.794 221.375 457.416 221.375C457.176 221.375 456.969 221.426 456.795 221.528C456.621 221.624 456.483 221.759 456.381 221.933C456.285 222.101 456.222 222.293 456.192 222.509C456.18 222.587 456.147 222.641 456.093 222.671C456.045 222.701 456 222.716 455.958 222.716H455.49C455.436 222.716 455.391 222.701 455.355 222.671C455.319 222.635 455.301 222.593 455.301 222.545C455.307 222.317 455.355 222.089 455.445 221.861C455.535 221.627 455.667 221.417 455.841 221.231C456.021 221.045 456.24 220.895 456.498 220.781C456.762 220.661 457.068 220.601 457.416 220.601C457.89 220.601 458.277 220.688 458.577 220.862C458.883 221.03 459.108 221.255 459.252 221.537C459.396 221.819 459.468 222.128 459.468 222.464C459.468 222.728 459.423 222.971 459.333 223.193C459.243 223.409 459.111 223.622 458.937 223.832C458.769 224.036 458.559 224.246 458.307 224.462L456.579 226.217H459.387C459.453 226.217 459.504 226.235 459.54 226.271C459.582 226.307 459.603 226.358 459.603 226.424V226.793C459.603 226.853 459.582 226.904 459.54 226.946C459.504 226.982 459.453 227 459.387 227H455.418ZM462.68 227.09C462.206 227.09 461.804 227.009 461.474 226.847C461.15 226.679 460.901 226.463 460.727 226.199C460.559 225.935 460.469 225.656 460.457 225.362C460.451 225.308 460.466 225.266 460.502 225.236C460.538 225.206 460.583 225.191 460.637 225.191H461.123C461.177 225.191 461.225 225.203 461.267 225.227C461.309 225.251 461.342 225.302 461.366 225.38C461.426 225.602 461.522 225.785 461.654 225.929C461.792 226.067 461.948 226.169 462.122 226.235C462.302 226.295 462.488 226.325 462.68 226.325C462.938 226.325 463.172 226.274 463.382 226.172C463.598 226.064 463.769 225.908 463.895 225.704C464.021 225.494 464.084 225.242 464.084 224.948C464.084 224.678 464.021 224.447 463.895 224.255C463.775 224.057 463.607 223.907 463.391 223.805C463.181 223.697 462.944 223.643 462.68 223.643C462.482 223.643 462.32 223.667 462.194 223.715C462.068 223.763 461.96 223.82 461.87 223.886C461.786 223.952 461.708 224.009 461.636 224.057C461.57 224.105 461.495 224.129 461.411 224.129H460.943C460.889 224.129 460.841 224.111 460.799 224.075C460.757 224.033 460.739 223.985 460.745 223.931L461.033 220.925C461.039 220.853 461.06 220.799 461.096 220.763C461.138 220.721 461.192 220.7 461.258 220.7H464.399C464.459 220.7 464.507 220.721 464.543 220.763C464.585 220.799 464.606 220.847 464.606 220.907V221.258C464.606 221.324 464.585 221.375 464.543 221.411C464.507 221.447 464.459 221.465 464.399 221.465H461.807L461.636 223.238C461.72 223.184 461.855 223.121 462.041 223.049C462.227 222.971 462.482 222.932 462.806 222.932C463.1 222.932 463.376 222.977 463.634 223.067C463.898 223.157 464.132 223.289 464.336 223.463C464.54 223.637 464.699 223.85 464.813 224.102C464.927 224.348 464.984 224.633 464.984 224.957C464.984 225.413 464.882 225.8 464.678 226.118C464.48 226.436 464.207 226.679 463.859 226.847C463.517 227.009 463.124 227.09 462.68 227.09ZM468.249 227.09C467.835 227.09 467.484 227.027 467.196 226.901C466.914 226.769 466.683 226.589 466.503 226.361C466.323 226.133 466.191 225.872 466.107 225.578C466.029 225.284 465.984 224.972 465.972 224.642C465.966 224.48 465.96 224.309 465.954 224.129C465.954 223.949 465.954 223.769 465.954 223.589C465.96 223.403 465.966 223.226 465.972 223.058C465.978 222.728 466.023 222.416 466.107 222.122C466.197 221.822 466.329 221.561 466.503 221.339C466.683 221.111 466.917 220.934 467.205 220.808C467.493 220.676 467.841 220.61 468.249 220.61C468.663 220.61 469.011 220.676 469.293 220.808C469.581 220.934 469.815 221.111 469.995 221.339C470.175 221.561 470.307 221.822 470.391 222.122C470.481 222.416 470.529 222.728 470.535 223.058C470.541 223.226 470.544 223.403 470.544 223.589C470.55 223.769 470.55 223.949 470.544 224.129C470.544 224.309 470.541 224.48 470.535 224.642C470.529 224.972 470.481 225.284 470.391 225.578C470.307 225.872 470.175 226.133 469.995 226.361C469.821 226.589 469.59 226.769 469.302 226.901C469.02 227.027 468.669 227.09 468.249 227.09ZM468.249 226.325C468.717 226.325 469.062 226.172 469.284 225.866C469.512 225.554 469.629 225.131 469.635 224.597C469.647 224.423 469.653 224.255 469.653 224.093C469.653 223.925 469.653 223.76 469.653 223.598C469.653 223.43 469.647 223.265 469.635 223.103C469.629 222.581 469.512 222.164 469.284 221.852C469.062 221.534 468.717 221.375 468.249 221.375C467.787 221.375 467.442 221.534 467.214 221.852C466.992 222.164 466.875 222.581 466.863 223.103C466.863 223.265 466.86 223.43 466.854 223.598C466.854 223.76 466.854 223.925 466.854 224.093C466.86 224.255 466.863 224.423 466.863 224.597C466.875 225.131 466.995 225.554 467.223 225.866C467.451 226.172 467.793 226.325 468.249 226.325Z" fill="#F3A738"/>
<path d="M376.853 227.09C376.439 227.09 376.088 227.027 375.8 226.901C375.518 226.769 375.287 226.589 375.107 226.361C374.927 226.133 374.795 225.872 374.711 225.578C374.633 225.284 374.588 224.972 374.576 224.642C374.57 224.48 374.564 224.309 374.558 224.129C374.558 223.949 374.558 223.769 374.558 223.589C374.564 223.403 374.57 223.226 374.576 223.058C374.582 222.728 374.627 222.416 374.711 222.122C374.801 221.822 374.933 221.561 375.107 221.339C375.287 221.111 375.521 220.934 375.809 220.808C376.097 220.676 376.445 220.61 376.853 220.61C377.267 220.61 377.615 220.676 377.897 220.808C378.185 220.934 378.419 221.111 378.599 221.339C378.779 221.561 378.911 221.822 378.995 222.122C379.085 222.416 379.133 222.728 379.139 223.058C379.145 223.226 379.148 223.403 379.148 223.589C379.154 223.769 379.154 223.949 379.148 224.129C379.148 224.309 379.145 224.48 379.139 224.642C379.133 224.972 379.085 225.284 378.995 225.578C378.911 225.872 378.779 226.133 378.599 226.361C378.425 226.589 378.194 226.769 377.906 226.901C377.624 227.027 377.273 227.09 376.853 227.09ZM376.853 226.325C377.321 226.325 377.666 226.172 377.888 225.866C378.116 225.554 378.233 225.131 378.239 224.597C378.251 224.423 378.257 224.255 378.257 224.093C378.257 223.925 378.257 223.76 378.257 223.598C378.257 223.43 378.251 223.265 378.239 223.103C378.233 222.581 378.116 222.164 377.888 221.852C377.666 221.534 377.321 221.375 376.853 221.375C376.391 221.375 376.046 221.534 375.818 221.852C375.596 222.164 375.479 222.581 375.467 223.103C375.467 223.265 375.464 223.43 375.458 223.598C375.458 223.76 375.458 223.925 375.458 224.093C375.464 224.255 375.467 224.423 375.467 224.597C375.479 225.131 375.599 225.554 375.827 225.866C376.055 226.172 376.397 226.325 376.853 226.325ZM382.341 227.09C381.867 227.09 381.465 227.009 381.135 226.847C380.811 226.679 380.562 226.463 380.388 226.199C380.22 225.935 380.13 225.656 380.118 225.362C380.112 225.308 380.127 225.266 380.163 225.236C380.199 225.206 380.244 225.191 380.298 225.191H380.784C380.838 225.191 380.886 225.203 380.928 225.227C380.97 225.251 381.003 225.302 381.027 225.38C381.087 225.602 381.183 225.785 381.315 225.929C381.453 226.067 381.609 226.169 381.783 226.235C381.963 226.295 382.149 226.325 382.341 226.325C382.599 226.325 382.833 226.274 383.043 226.172C383.259 226.064 383.43 225.908 383.556 225.704C383.682 225.494 383.745 225.242 383.745 224.948C383.745 224.678 383.682 224.447 383.556 224.255C383.436 224.057 383.268 223.907 383.052 223.805C382.842 223.697 382.605 223.643 382.341 223.643C382.143 223.643 381.981 223.667 381.855 223.715C381.729 223.763 381.621 223.82 381.531 223.886C381.447 223.952 381.369 224.009 381.297 224.057C381.231 224.105 381.156 224.129 381.072 224.129H380.604C380.55 224.129 380.502 224.111 380.46 224.075C380.418 224.033 380.4 223.985 380.406 223.931L380.694 220.925C380.7 220.853 380.721 220.799 380.757 220.763C380.799 220.721 380.853 220.7 380.919 220.7H384.06C384.12 220.7 384.168 220.721 384.204 220.763C384.246 220.799 384.267 220.847 384.267 220.907V221.258C384.267 221.324 384.246 221.375 384.204 221.411C384.168 221.447 384.12 221.465 384.06 221.465H381.468L381.297 223.238C381.381 223.184 381.516 223.121 381.702 223.049C381.888 222.971 382.143 222.932 382.467 222.932C382.761 222.932 383.037 222.977 383.295 223.067C383.559 223.157 383.793 223.289 383.997 223.463C384.201 223.637 384.36 223.85 384.474 224.102C384.588 224.348 384.645 224.633 384.645 224.957C384.645 225.413 384.543 225.8 384.339 226.118C384.141 226.436 383.868 226.679 383.52 226.847C383.178 227.009 382.785 227.09 382.341 227.09ZM385.435 227.756C385.387 227.756 385.345 227.738 385.309 227.702C385.273 227.666 385.255 227.624 385.255 227.576C385.255 227.546 385.264 227.51 385.282 227.468L388.36 220.088C388.378 220.052 388.402 220.016 388.432 219.98C388.468 219.944 388.522 219.926 388.594 219.926H388.945C388.993 219.926 389.035 219.944 389.071 219.98C389.107 220.016 389.125 220.058 389.125 220.106C389.125 220.13 389.119 220.166 389.107 220.214L386.02 227.594C386.008 227.624 385.981 227.657 385.939 227.693C385.903 227.735 385.852 227.756 385.786 227.756H385.435ZM391.803 227C391.743 227 391.692 226.982 391.65 226.946C391.614 226.904 391.596 226.853 391.596 226.793V221.753L390.102 222.905C390.054 222.941 390.003 222.956 389.949 222.95C389.895 222.944 389.85 222.917 389.814 222.869L389.58 222.572C389.544 222.518 389.529 222.464 389.535 222.41C389.547 222.356 389.577 222.311 389.625 222.275L391.587 220.763C391.629 220.733 391.668 220.715 391.704 220.709C391.74 220.703 391.779 220.7 391.821 220.7H392.28C392.34 220.7 392.388 220.721 392.424 220.763C392.46 220.799 392.478 220.847 392.478 220.907V226.793C392.478 226.853 392.46 226.904 392.424 226.946C392.388 226.982 392.34 227 392.28 227H391.803ZM393.817 227C393.757 227 393.706 226.982 393.664 226.946C393.628 226.904 393.61 226.853 393.61 226.793V226.505C393.61 226.451 393.625 226.391 393.655 226.325C393.685 226.259 393.745 226.187 393.835 226.109L395.743 224.201C396.049 223.943 396.289 223.724 396.463 223.544C396.643 223.358 396.769 223.181 396.841 223.013C396.919 222.845 396.958 222.671 396.958 222.491C396.958 222.149 396.862 221.879 396.67 221.681C396.478 221.477 396.193 221.375 395.815 221.375C395.575 221.375 395.368 221.426 395.194 221.528C395.02 221.624 394.882 221.759 394.78 221.933C394.684 222.101 394.621 222.293 394.591 222.509C394.579 222.587 394.546 222.641 394.492 222.671C394.444 222.701 394.399 222.716 394.357 222.716H393.889C393.835 222.716 393.79 222.701 393.754 222.671C393.718 222.635 393.7 222.593 393.7 222.545C393.706 222.317 393.754 222.089 393.844 221.861C393.934 221.627 394.066 221.417 394.24 221.231C394.42 221.045 394.639 220.895 394.897 220.781C395.161 220.661 395.467 220.601 395.815 220.601C396.289 220.601 396.676 220.688 396.976 220.862C397.282 221.03 397.507 221.255 397.651 221.537C397.795 221.819 397.867 222.128 397.867 222.464C397.867 222.728 397.822 222.971 397.732 223.193C397.642 223.409 397.51 223.622 397.336 223.832C397.168 224.036 396.958 224.246 396.706 224.462L394.978 226.217H397.786C397.852 226.217 397.903 226.235 397.939 226.271C397.981 226.307 398.002 226.358 398.002 226.424V226.793C398.002 226.853 397.981 226.904 397.939 226.946C397.903 226.982 397.852 227 397.786 227H393.817ZM398.865 227.756C398.817 227.756 398.775 227.738 398.739 227.702C398.703 227.666 398.685 227.624 398.685 227.576C398.685 227.546 398.694 227.51 398.712 227.468L401.79 220.088C401.808 220.052 401.832 220.016 401.862 219.98C401.898 219.944 401.952 219.926 402.024 219.926H402.375C402.423 219.926 402.465 219.944 402.501 219.98C402.537 220.016 402.555 220.058 402.555 220.106C402.555 220.13 402.549 220.166 402.537 220.214L399.45 227.594C399.438 227.624 399.411 227.657 399.369 227.693C399.333 227.735 399.282 227.756 399.216 227.756H398.865ZM403.309 227C403.249 227 403.198 226.982 403.156 226.946C403.12 226.904 403.102 226.853 403.102 226.793V226.505C403.102 226.451 403.117 226.391 403.147 226.325C403.177 226.259 403.237 226.187 403.327 226.109L405.235 224.201C405.541 223.943 405.781 223.724 405.955 223.544C406.135 223.358 406.261 223.181 406.333 223.013C406.411 222.845 406.45 222.671 406.45 222.491C406.45 222.149 406.354 221.879 406.162 221.681C405.97 221.477 405.685 221.375 405.307 221.375C405.067 221.375 404.86 221.426 404.686 221.528C404.512 221.624 404.374 221.759 404.272 221.933C404.176 222.101 404.113 222.293 404.083 222.509C404.071 222.587 404.038 222.641 403.984 222.671C403.936 222.701 403.891 222.716 403.849 222.716H403.381C403.327 222.716 403.282 222.701 403.246 222.671C403.21 222.635 403.192 222.593 403.192 222.545C403.198 222.317 403.246 222.089 403.336 221.861C403.426 221.627 403.558 221.417 403.732 221.231C403.912 221.045 404.131 220.895 404.389 220.781C404.653 220.661 404.959 220.601 405.307 220.601C405.781 220.601 406.168 220.688 406.468 220.862C406.774 221.03 406.999 221.255 407.143 221.537C407.287 221.819 407.359 222.128 407.359 222.464C407.359 222.728 407.314 222.971 407.224 223.193C407.134 223.409 407.002 223.622 406.828 223.832C406.66 224.036 406.45 224.246 406.198 224.462L404.47 226.217H407.278C407.344 226.217 407.395 226.235 407.431 226.271C407.473 226.307 407.494 226.358 407.494 226.424V226.793C407.494 226.853 407.473 226.904 407.431 226.946C407.395 226.982 407.344 227 407.278 227H403.309ZM410.796 227.09C410.382 227.09 410.031 227.027 409.743 226.901C409.461 226.769 409.23 226.589 409.05 226.361C408.87 226.133 408.738 225.872 408.654 225.578C408.576 225.284 408.531 224.972 408.519 224.642C408.513 224.48 408.507 224.309 408.501 224.129C408.501 223.949 408.501 223.769 408.501 223.589C408.507 223.403 408.513 223.226 408.519 223.058C408.525 222.728 408.57 222.416 408.654 222.122C408.744 221.822 408.876 221.561 409.05 221.339C409.23 221.111 409.464 220.934 409.752 220.808C410.04 220.676 410.388 220.61 410.796 220.61C411.21 220.61 411.558 220.676 411.84 220.808C412.128 220.934 412.362 221.111 412.542 221.339C412.722 221.561 412.854 221.822 412.938 222.122C413.028 222.416 413.076 222.728 413.082 223.058C413.088 223.226 413.091 223.403 413.091 223.589C413.097 223.769 413.097 223.949 413.091 224.129C413.091 224.309 413.088 224.48 413.082 224.642C413.076 224.972 413.028 225.284 412.938 225.578C412.854 225.872 412.722 226.133 412.542 226.361C412.368 226.589 412.137 226.769 411.849 226.901C411.567 227.027 411.216 227.09 410.796 227.09ZM410.796 226.325C411.264 226.325 411.609 226.172 411.831 225.866C412.059 225.554 412.176 225.131 412.182 224.597C412.194 224.423 412.2 224.255 412.2 224.093C412.2 223.925 412.2 223.76 412.2 223.598C412.2 223.43 412.194 223.265 412.182 223.103C412.176 222.581 412.059 222.164 411.831 221.852C411.609 221.534 411.264 221.375 410.796 221.375C410.334 221.375 409.989 221.534 409.761 221.852C409.539 222.164 409.422 222.581 409.41 223.103C409.41 223.265 409.407 223.43 409.401 223.598C409.401 223.76 409.401 223.925 409.401 224.093C409.407 224.255 409.41 224.423 409.41 224.597C409.422 225.131 409.542 225.554 409.77 225.866C409.998 226.172 410.34 226.325 410.796 226.325ZM414.304 227C414.244 227 414.193 226.982 414.151 226.946C414.115 226.904 414.097 226.853 414.097 226.793V226.505C414.097 226.451 414.112 226.391 414.142 226.325C414.172 226.259 414.232 226.187 414.322 226.109L416.23 224.201C416.536 223.943 416.776 223.724 416.95 223.544C417.13 223.358 417.256 223.181 417.328 223.013C417.406 222.845 417.445 222.671 417.445 222.491C417.445 222.149 417.349 221.879 417.157 221.681C416.965 221.477 416.68 221.375 416.302 221.375C416.062 221.375 415.855 221.426 415.681 221.528C415.507 221.624 415.369 221.759 415.267 221.933C415.171 222.101 415.108 222.293 415.078 222.509C415.066 222.587 415.033 222.641 414.979 222.671C414.931 222.701 414.886 222.716 414.844 222.716H414.376C414.322 222.716 414.277 222.701 414.241 222.671C414.205 222.635 414.187 222.593 414.187 222.545C414.193 222.317 414.241 222.089 414.331 221.861C414.421 221.627 414.553 221.417 414.727 221.231C414.907 221.045 415.126 220.895 415.384 220.781C415.648 220.661 415.954 220.601 416.302 220.601C416.776 220.601 417.163 220.688 417.463 220.862C417.769 221.03 417.994 221.255 418.138 221.537C418.282 221.819 418.354 222.128 418.354 222.464C418.354 222.728 418.309 222.971 418.219 223.193C418.129 223.409 417.997 223.622 417.823 223.832C417.655 224.036 417.445 224.246 417.193 224.462L415.465 226.217H418.273C418.339 226.217 418.39 226.235 418.426 226.271C418.468 226.307 418.489 226.358 418.489 226.424V226.793C418.489 226.853 418.468 226.904 418.426 226.946C418.39 226.982 418.339 227 418.273 227H414.304ZM419.586 227C419.526 227 419.475 226.982 419.433 226.946C419.397 226.904 419.379 226.853 419.379 226.793V226.505C419.379 226.451 419.394 226.391 419.424 226.325C419.454 226.259 419.514 226.187 419.604 226.109L421.512 224.201C421.818 223.943 422.058 223.724 422.232 223.544C422.412 223.358 422.538 223.181 422.61 223.013C422.688 222.845 422.727 222.671 422.727 222.491C422.727 222.149 422.631 221.879 422.439 221.681C422.247 221.477 421.962 221.375 421.584 221.375C421.344 221.375 421.137 221.426 420.963 221.528C420.789 221.624 420.651 221.759 420.549 221.933C420.453 222.101 420.39 222.293 420.36 222.509C420.348 222.587 420.315 222.641 420.261 222.671C420.213 222.701 420.168 222.716 420.126 222.716H419.658C419.604 222.716 419.559 222.701 419.523 222.671C419.487 222.635 419.469 222.593 419.469 222.545C419.475 222.317 419.523 222.089 419.613 221.861C419.703 221.627 419.835 221.417 420.009 221.231C420.189 221.045 420.408 220.895 420.666 220.781C420.93 220.661 421.236 220.601 421.584 220.601C422.058 220.601 422.445 220.688 422.745 220.862C423.051 221.03 423.276 221.255 423.42 221.537C423.564 221.819 423.636 222.128 423.636 222.464C423.636 222.728 423.591 222.971 423.501 223.193C423.411 223.409 423.279 223.622 423.105 223.832C422.937 224.036 422.727 224.246 422.475 224.462L420.747 226.217H423.555C423.621 226.217 423.672 226.235 423.708 226.271C423.75 226.307 423.771 226.358 423.771 226.424V226.793C423.771 226.853 423.75 226.904 423.708 226.946C423.672 226.982 423.621 227 423.555 227H419.586ZM425.049 223.85C424.989 223.85 424.938 223.832 424.896 223.796C424.86 223.754 424.842 223.703 424.842 223.643V223.013C424.842 222.953 424.86 222.905 424.896 222.869C424.938 222.827 424.989 222.806 425.049 222.806H425.688C425.754 222.806 425.805 222.827 425.841 222.869C425.883 222.905 425.904 222.953 425.904 223.013V223.643C425.904 223.703 425.883 223.754 425.841 223.796C425.805 223.832 425.754 223.85 425.688 223.85H425.049ZM425.049 227C424.989 227 424.938 226.982 424.896 226.946C424.86 226.904 424.842 226.853 424.842 226.793V226.163C424.842 226.103 424.86 226.055 424.896 226.019C424.938 225.977 424.989 225.956 425.049 225.956H425.688C425.754 225.956 425.805 225.977 425.841 226.019C425.883 226.055 425.904 226.103 425.904 226.163V226.793C425.904 226.853 425.883 226.904 425.841 226.946C425.805 226.982 425.754 227 425.688 227H425.049Z" fill="#F9F9F9"/>
<path d="M435 225L439 221L443 225H435Z" fill="#F3A738"/>
<circle cx="423.5" cy="243.5" r="3.5" fill="#212529"/>
<defs>
<filter id="filter0_dd_414_61" x="0" y="0" width="818" height="514" filterUnits="userSpaceOnUse" color-interpolation-filters="sRGB">
<feFlood flood-opacity="0" result="BackgroundImageFix"/>
<feColorMatrix in="SourceAlpha" type="matrix" values="0 0 0 0 0 0 0 0 0 0 0 0 0 0 0 0 0 0 127 0" result="hardAlpha"/>
<feOffset dy="8"/>
<feGaussianBlur stdDeviation="19"/>
<feColorMatrix type="matrix" values="0 0 0 0 0 0 0 0 0 0 0 0 0 0 0 0 0 0 0.15 0"/>
<feBlend mode="normal" in2="BackgroundImageFix" result="effect1_dropShadow_414_61"/>
<feColorMatrix in="SourceAlpha" type="matrix" values="0 0 0 0 0 0 0 0 0 0 0 0 0 0 0 0 0 0 127 0" result="hardAlpha"/>
<feOffset/>
<feGaussianBlur stdDeviation="5.5"/>
<feColorMatrix type="matrix" values="0 0 0 0 0 0 0 0 0 0 0 0 0 0 0 0 0 0 0.04 0"/>
<feBlend mode="normal" in2="effect1_dropShadow_414_61" result="effect2_dropShadow_414_61"/>
<feBlend mode="normal" in="SourceGraphic" in2="effect2_dropShadow_414_61" result="shape"/>
</filter>
<filter id="filter1_d_414_61" x="62.9998" y="174.5" width="725.501" height="227" filterUnits="userSpaceOnUse" color-interpolation-filters="sRGB">
<feFlood flood-opacity="0" result="BackgroundImageFix"/>
<feColorMatrix in="SourceAlpha" type="matrix" values="0 0 0 0 0 0 0 0 0 0 0 0 0 0 0 0 0 0 127 0" result="hardAlpha"/>
<feOffset dy="4"/>
<feGaussianBlur stdDeviation="22"/>
<feComposite in2="hardAlpha" operator="out"/>
<feColorMatrix type="matrix" values="0 0 0 0 0.407843 0 0 0 0 0.65098 0 0 0 0 0.568627 0 0 0 0.5 0"/>
<feBlend mode="normal" in2="BackgroundImageFix" result="effect1_dropShadow_414_61"/>
<feBlend mode="normal" in="SourceGraphic" in2="effect1_dropShadow_414_61" result="shape"/>
</filter>
<filter id="filter2_dd_414_61" x="359" y="209" width="129" height="38" filterUnits="userSpaceOnUse" color-interpolation-filters="sRGB">
<feFlood flood-opacity="0" result="BackgroundImageFix"/>
<feColorMatrix in="SourceAlpha" type="matrix" values="0 0 0 0 0 0 0 0 0 0 0 0 0 0 0 0 0 0 127 0" result="hardAlpha"/>
<feOffset dy="4"/>
<feGaussianBlur stdDeviation="4"/>
<feColorMatrix type="matrix" values="0 0 0 0 0 0 0 0 0 0 0 0 0 0 0 0 0 0 0.06 0"/>
<feBlend mode="normal" in2="BackgroundImageFix" result="effect1_dropShadow_414_61"/>
<feColorMatrix in="SourceAlpha" type="matrix" values="0 0 0 0 0 0 0 0 0 0 0 0 0 0 0 0 0 0 127 0" result="hardAlpha"/>
<feOffset/>
<feGaussianBlur stdDeviation="2"/>
<feColorMatrix type="matrix" values="0 0 0 0 0 0 0 0 0 0 0 0 0 0 0 0 0 0 0.04 0"/>
<feBlend mode="normal" in2="effect1_dropShadow_414_61" result="effect2_dropShadow_414_61"/>
<feBlend mode="normal" in="SourceGraphic" in2="effect2_dropShadow_414_61" result="shape"/>
</filter>
</defs>
</svg>
