<?xml version="1.0" standalone="no"?>
<svg viewBox="0 0 200 200" xmlns="http://www.w3.org/2000/svg">
  <path fill="#264498" d="M23,-39.2C30.2,-35.7,36.9,-30.4,42.8,-23.6C48.7,-16.7,53.9,-8.4,55.5,1C57.2,10.3,55.3,20.6,50.3,28.9C45.3,37.3,37.1,43.7,28.2,46.2C19.3,48.8,9.6,47.6,-1.1,49.5C-11.8,51.4,-23.7,56.4,-29.6,52.1C-35.5,47.8,-35.5,34.2,-37.3,23.9C-39,13.7,-42.4,6.8,-45.7,-1.9C-49,-10.6,-52.1,-21.3,-48.7,-28.6C-45.3,-36,-35.4,-40.1,-26.2,-42.5C-17,-44.9,-8.5,-45.6,-0.3,-45C7.9,-44.5,15.8,-42.7,23,-39.2Z" transform="translate(100 100)" />
</svg>
